<svg width="447" height="332" viewBox="0 0 447 332" fill="none" xmlns="http://www.w3.org/2000/svg">
<mask id="mask0" mask-type="alpha" maskUnits="userSpaceOnUse" x="0" y="0" width="548" height="332">
<path d="M535.226 31.9231H283.58C278.471 12.7692 261.865 0 242.704 0C223.543 0 205.66 12.7692 200.55 31.9231H53.6503C24.2704 31.9231 0 54.9077 0 84.2769V319.231C0 326.892 5.10956 332 12.7739 332C20.4382 332 25.5478 326.892 25.5478 319.231V312.846V84.2769C25.5478 68.9538 38.3217 56.1846 53.6503 56.1846H200.55C205.66 74.0615 222.266 88.1077 242.704 88.1077C263.142 88.1077 279.748 75.3385 284.858 56.1846H510.956H535.226C542.89 56.1846 548 51.0769 548 43.4154C548 35.7538 542.89 31.9231 535.226 31.9231ZM255.478 57.4615C251.646 61.2923 247.814 63.8462 242.704 63.8462C237.594 63.8462 232.485 61.2923 229.93 57.4615C227.375 53.6308 224.821 49.8 224.821 44.6923C224.821 39.5846 227.375 35.7538 229.93 31.9231C232.485 28.0923 236.317 25.5385 242.704 25.5385C247.814 25.5385 252.923 28.0923 255.478 31.9231C258.033 35.7538 260.587 39.5846 260.587 44.6923C260.587 48.5231 259.31 53.6308 255.478 57.4615Z" fill="#4353FF"/>
</mask>
<g mask="url(#mask0)">
<rect y="-49" width="447" height="281" fill="#4353FF"/>
</g>
</svg>
