<?xml version="1.0" encoding="utf-8"?>
<!-- Generator: Adobe Illustrator 21.0.2, SVG Export Plug-In . SVG Version: 6.00 Build 0)  -->
<svg version="1.1" id="Layer_1" xmlns="http://www.w3.org/2000/svg" xmlns:xlink="http://www.w3.org/1999/xlink" x="0px" y="0px"
	 viewBox="0 0 425.2 255.1" style="enable-background:new 0 0 425.2 255.1;" xml:space="preserve">
<style type="text/css">
	.st0{fill:#FFFFFF;}
</style>
<g>
	<path class="st0" d="M393.6,93.3h-73.2h-0.1l0,0h-17.7c1.2-2.2,1.9-4.6,1.9-7.1V64.6c0-1.6-1.3-2.9-2.9-2.9h-1.6
		c-1.6,0-2.9,1.3-2.9,2.9v21.6c0,3.9-3.2,7.1-7.1,7.1h-72.8h-0.1l0,0H76.3v0H65.9c-0.1,0-0.2,0-0.3,0H54.1c-3.9,0-7.1-3.2-7.1-7.1
		V69c0-0.1,0-0.2,0-0.3V57v-1.9c0-3.9,3.2-7.1,7.1-7.1h35.7c1.6,0,2.9-1.3,2.9-2.9v-1.6c0-1.6-1.3-2.9-2.9-2.9H54
		c-8,0-14.5,6.5-14.5,14.5V57v28.9v0.4c0,1.7,0.3,3.3,0.9,4.8c2,5.6,7.3,9.6,13.6,9.6h4.6c0.5,0,1.1,0,7.8,0h287.5l-6.2,0h45.9
		c3.9,0,7.1,3.2,7.1,7.1v76.7c0,3.9-3.2,7.1-7.1,7.1H209.8c-0.1,0-0.2,0-0.3,0h-60.3c-3.9,0-7.1-3.2-7.1-7.1v-32.9
		c0-1.6-1.3-2.9-2.9-2.9h-1.6c-1.6,0-2.9,1.3-2.9,2.9v32.9c0,8,6.5,14.5,14.5,14.5h6.8c0.1,0,0.2,0,0.3,0h237.4
		c8,0,14.5-6.5,14.5-14.5v-76.7C408.1,99.8,401.6,93.3,393.6,93.3"/>
	<path class="st0" d="M105.7,44.3c0.7-0.6,1.4-1.2,2-1.9c2.8-3.2,4.4-7.4,4.4-12c0-4.5-1.6-8.8-4.4-12c-2.9-3.3-7-5.2-11.8-5.5
		c-0.2,0-0.3,0-0.5,0l-17.6,0c0,0-0.1,0-0.1,0h-4.8c-1.6,0-2.9,1.3-2.9,2.9v1.7c0,1.6,1.3,2.9,2.9,2.9h18.2c0,0,0,0,0,0h3.4
		c7,0,10.2,5.1,10.2,10.2c0,5.1-3.1,10.2-10.2,10.2l-1.2,0l-15.9,0V24.8c0-1-1.3-1.9-2.9-1.9h-1.7c-1.6,0-2.9,0.8-2.9,1.9l0,39.1
		c0,1,1.3,1.9,2.9,1.9h1.7c1.6,0,2.9-0.8,2.9-1.9l0-15.8h17.3c5,0.1,10,3.2,10,10.2c0,5.1-3.1,10.2-10.2,10.2l-15.7,0h-1.4v0h-1.8v0
		h-2.7c-1.6,0-2.9,1.3-2.9,2.9v1.7c0,1.6,1.3,2.9,2.9,2.9h6.3l16.2,0c0.2,0,0.4,0,0.6-0.1c4.8-0.3,8.8-2.2,11.7-5.5
		c2.8-3.2,4.4-7.5,4.4-12c0-4.5-1.6-8.8-4.4-12C107.1,45.5,106.5,44.9,105.7,44.3"/>
	<path class="st0" d="M214,68.3h-33.3L216,17.4c0.6-0.9,0.7-2,0.2-3c-0.5-0.9-1.5-1.5-2.5-1.5h-41.9c-1.6,0-2.9,1.3-2.9,2.9v1.7
		c0,1.6,1.3,2.9,2.9,2.9H205l-35.3,50.9c-0.6,0.9-0.7,2-0.2,3c0.5,0.9,1.5,1.5,2.5,1.5H214c1.6,0,2.9-1.3,2.9-2.9v-1.7
		C216.8,69.6,215.5,68.3,214,68.3"/>
	<path class="st0" d="M164.3,71.9l-21.4-57.1c-0.4-1.1-1.5-1.9-2.7-1.9H139c-1.2,0-2.3,0.7-2.7,1.9l-21.4,57.1
		c-0.3,0.9-0.2,1.9,0.3,2.6c0.5,0.8,1.4,1.2,2.4,1.2h1.8c1.2,0,2.3-0.7,2.7-1.9l17.5-46.8l17.5,46.8c0.4,1.1,1.5,1.9,2.7,1.9h1.8
		c0.9,0,1.8-0.5,2.4-1.2C164.5,73.7,164.6,72.8,164.3,71.9"/>
	<path class="st0" d="M271.9,71.9l-21.4-57.1c-0.4-1.1-1.5-1.9-2.7-1.9h-1.1c-1.2,0-2.3,0.7-2.7,1.9l-21.4,57.1
		c-0.3,0.9-0.2,1.9,0.3,2.6c0.5,0.8,1.4,1.2,2.4,1.2h1.8c1.2,0,2.3-0.7,2.7-1.9l17.5-46.8l17.5,46.8c0.4,1.1,1.5,1.9,2.7,1.9h1.8
		c0.9,0,1.8-0.5,2.4-1.2C272.1,73.7,272.2,72.8,271.9,71.9"/>
	<path class="st0" d="M325.3,71.9l-21.1-56.2l-0.4-1c-0.4-1.1-1.5-1.9-2.7-1.9h-1.1c-1.2,0-2.3,0.7-2.7,1.9L276,71.9
		c-0.3,0.9-0.2,1.9,0.3,2.6c0.5,0.8,1.4,1.2,2.4,1.2h1.8c1.2,0,2.3-0.7,2.7-1.9l17.5-46.8l17.5,46.8c0.4,1.1,1.5,1.9,2.7,1.9h1.8
		c0.9,0,1.8-0.5,2.4-1.2C325.5,73.7,325.6,72.8,325.3,71.9"/>
	<path class="st0" d="M362,18.5c-2.9-3.3-7-5.2-11.8-5.5l0,0c-0.2,0-0.3,0-0.5,0l-15.5,0h0c-1.6,0-2.9,1.3-2.9,2.9v57.1
		c0,1.6,1.3,2.9,2.9,2.9h1.7c1.6,0,2.9-1.3,2.9-2.9V48l11.4,0l0,0l0,0c4.8-0.3,8.9-2.2,11.8-5.5c2.8-3.2,4.4-7.4,4.4-12
		C366.4,25.9,364.9,21.7,362,18.5 M348.9,40.6l-10.2,0V20.3l10.2,0c7,0,10.2,5.1,10.2,10.2C359,35.5,355.9,40.6,348.9,40.6"/>
	<path class="st0" d="M365.9,71.6l-9.8-19.8c-0.5-1-1.5-1.6-2.6-1.6h-1.9c-1,0-1.9,0.5-2.4,1.4c-0.5,0.9-0.6,1.9-0.1,2.8l9.8,19.8
		c0.5,1,1.5,1.6,2.6,1.6h1.9c1,0,1.9-0.5,2.4-1.4C366.3,73.5,366.3,72.5,365.9,71.6"/>
	<path class="st0" d="M294.9,116.1c-17.3,0-31.4,14.1-31.4,31.4s14.1,31.4,31.4,31.4s31.4-14.1,31.4-31.4S312.3,116.1,294.9,116.1
		 M270.9,147.5c0-13.3,10.8-24,24-24c13.3,0,24,10.8,24,24c0,13.3-10.8,24-24,24C281.7,171.6,270.9,160.8,270.9,147.5"/>
	<path class="st0" d="M40,126.1h-1.7c-1.6,0-2.9,1.3-2.9,2.9v47.1c0,1.6,1.3,2.9,2.9,2.9H40c1.6,0,2.9-1.3,2.9-2.9V129
		C42.9,127.4,41.6,126.1,40,126.1"/>
	<path class="st0" d="M60.8,116.1H17.5c-1.6,0-2.9,1.3-2.9,2.9v1.7c0,1.6,1.3,2.9,2.9,2.9h43.3c1.6,0,2.9-1.3,2.9-2.9V119
		C63.7,117.4,62.4,116.1,60.8,116.1"/>
	<path class="st0" d="M191.5,126.1h-1.7c-1.6,0-2.9,1.3-2.9,2.9v47.1c0,1.6,1.3,2.9,2.9,2.9h1.7c1.6,0,2.9-1.3,2.9-2.9V129
		C194.4,127.4,193.1,126.1,191.5,126.1"/>
	<path class="st0" d="M212.3,116.1H169c-1.6,0-2.9,1.3-2.9,2.9v1.7c0,1.6,1.3,2.9,2.9,2.9h43.3c1.6,0,2.9-1.3,2.9-2.9V119
		C215.2,117.4,213.9,116.1,212.3,116.1"/>
	<path class="st0" d="M243.2,126.1h-1.7c-1.6,0-2.9,1.3-2.9,2.9v47.1c0,1.6,1.3,2.9,2.9,2.9h1.7c1.6,0,2.9-1.3,2.9-2.9V129
		C246,127.4,244.7,126.1,243.2,126.1"/>
	<path class="st0" d="M264,116.1h-43.3c-1.6,0-2.9,1.3-2.9,2.9v1.7c0,1.6,1.3,2.9,2.9,2.9H264c1.6,0,2.9-1.3,2.9-2.9V119
		C266.8,117.4,265.5,116.1,264,116.1"/>
	<path class="st0" d="M337.3,116.1h-1.7c-1.6,0-2.9,1.3-2.9,2.9v57.1c0,1.6,1.3,2.9,2.9,2.9h1.7c1.6,0,2.9-1.3,2.9-2.9V119
		C340.2,117.4,338.9,116.1,337.3,116.1"/>
	<path class="st0" d="M405.6,100c0,2.5-2,4.5-4.5,4.5s-4.5-2-4.5-4.5c0-2.5,2-4.5,4.5-4.5S405.6,97.5,405.6,100"/>
	<path d="M401.1,95.4c2.5,0,4.5,2,4.5,4.5s-2,4.5-4.5,4.5c-2.5,0-4.5-2-4.5-4.5S398.6,95.4,401.1,95.4 M401.1,90.5
		c-5.2,0-9.5,4.2-9.5,9.5c0,5.2,4.2,9.5,9.5,9.5c5.2,0,9.5-4.2,9.5-9.5C410.5,94.8,406.3,90.5,401.1,90.5"/>
	<path class="st0" d="M143,147.5c0,2.5-2,4.5-4.5,4.5c-2.5,0-4.5-2-4.5-4.5c0-2.5,2-4.5,4.5-4.5C140.9,143,143,145,143,147.5"/>
	<path d="M138.4,143c2.5,0,4.5,2,4.5,4.5c0,2.5-2,4.5-4.5,4.5c-2.5,0-4.5-2-4.5-4.5C133.9,145,135.9,143,138.4,143 M138.4,138.1
		c-5.2,0-9.5,4.2-9.5,9.5s4.2,9.5,9.5,9.5c5.2,0,9.5-4.2,9.5-9.5S143.6,138.1,138.4,138.1"/>
	<path class="st0" d="M305.3,67.8c0-2.5-2-4.5-4.5-4.5c-2.5,0-4.5,2-4.5,4.5c0,2.5,2,4.5,4.5,4.5C303.3,72.3,305.3,70.3,305.3,67.8"
		/>
	<path d="M300.8,63.2c2.5,0,4.5,2,4.5,4.5c0,2.5-2,4.5-4.5,4.5c-2.5,0-4.5-2-4.5-4.5C296.3,65.2,298.3,63.2,300.8,63.2 M300.8,58.3
		c-5.2,0-9.5,4.2-9.5,9.5s4.2,9.5,9.5,9.5c5.2,0,9.5-4.2,9.5-9.5S306,58.3,300.8,58.3"/>
	<path class="st0" d="M341,195.5c0,2.5-2,4.5-4.5,4.5c-2.5,0-4.5-2-4.5-4.5c0-2.5,2-4.5,4.5-4.5C338.9,190.9,341,192.9,341,195.5"/>
	<path d="M336.4,190.9c2.5,0,4.5,2,4.5,4.5c0,2.5-2,4.5-4.5,4.5c-2.5,0-4.5-2-4.5-4.5C331.9,192.9,333.9,190.9,336.4,190.9
		 M336.4,186c-5.2,0-9.5,4.2-9.5,9.5c0,5.2,4.2,9.5,9.5,9.5c5.2,0,9.4-4.2,9.4-9.5C345.9,190.2,341.6,186,336.4,186"/>
	<path class="st0" d="M194.6,96.3c0,2.5-2,4.5-4.5,4.5s-4.5-2-4.5-4.5c0-2.5,2-4.5,4.5-4.5S194.6,93.8,194.6,96.3"/>
	<path d="M190,91.8c2.5,0,4.5,2,4.5,4.5c0,2.5-2,4.5-4.5,4.5c-2.5,0-4.5-2-4.5-4.5C185.5,93.8,187.5,91.8,190,91.8 M190,86.9
		c-5.2,0-9.5,4.2-9.5,9.5s4.2,9.5,9.5,9.5c5.2,0,9.5-4.2,9.5-9.5S195.3,86.9,190,86.9"/>
	<path class="st0" d="M78.3,44.5c0,2.5-2,4.5-4.5,4.5c-2.5,0-4.5-2-4.5-4.5c0-2.5,2-4.5,4.5-4.5C76.2,39.9,78.3,42,78.3,44.5"/>
	<path d="M73.7,39.9c2.5,0,4.5,2,4.5,4.5c0,2.5-2,4.5-4.5,4.5c-2.5,0-4.5-2-4.5-4.5C69.2,42,71.2,39.9,73.7,39.9 M73.7,35
		c-5.2,0-9.5,4.2-9.5,9.5c0,5.2,4.2,9.5,9.5,9.5c5.2,0,9.5-4.2,9.5-9.5C83.2,39.3,78.9,35,73.7,35"/>
	<path class="st0" d="M138,116.1c-17.3,0-31.4,14.1-31.4,31.4c0,15.1,10.6,27.9,25.2,30.8v-7.6c-10.4-2.8-17.8-12.3-17.8-23.2
		c0-13.3,10.8-24,24-24c13.3,0,24,10.8,24,24c0,10.6-7.2,20.1-17.1,23.1v7.6c14.2-3.1,24.5-15.9,24.5-30.7
		C169.4,130.2,155.3,116.1,138,116.1"/>
	<path class="st0" d="M380,121.6c-2.9-3.3-7-5.2-11.8-5.5l0,0c-0.2,0-0.3,0-0.5,0l-15.5,0h0c-1.6,0-2.9,1.3-2.9,2.9V176
		c0,1.6,1.3,2.9,2.9,2.9h1.7c1.6,0,2.9-1.3,2.9-2.9v-24.9l11.4,0l0,0l0,0c4.8-0.3,8.9-2.2,11.8-5.5c2.8-3.2,4.4-7.4,4.4-12
		C384.4,129,382.9,124.8,380,121.6 M366.9,143.7l-10.2,0v-20.3l10.2,0c7,0,10.2,5.1,10.2,10.2C377.1,138.6,373.9,143.7,366.9,143.7"
		/>
	<path class="st0" d="M383.9,174.7l-9.8-19.8c-0.5-1-1.5-1.6-2.6-1.6h-1.9c-1,0-1.9,0.5-2.4,1.4c-0.5,0.9-0.6,1.9-0.1,2.8l9.8,19.8
		c0.5,1,1.5,1.6,2.6,1.6h1.9c1,0,1.9-0.5,2.4-1.4C384.3,176.6,384.4,175.6,383.9,174.7"/>
	<path class="st0" d="M99,121.7c-2.9-3.3-7-5.2-11.8-5.5h0c-0.2,0-0.3,0-0.5,0l-15.5,0c-1.6,0-2.9,1.3-2.9,2.9v57.1
		c0,1.6,1.3,2.9,2.9,2.9h1.7c1.6,0,2.9-1.3,2.9-2.9v-24.9l11.4,0h0l0,0c4.8-0.3,8.9-2.2,11.8-5.5c2.8-3.2,4.4-7.4,4.4-12
		C103.4,129.1,101.8,124.9,99,121.7 M85.8,143.8l-10.2,0v-20.3l10.2,0c7,0,10.2,5.1,10.2,10.2C96,138.7,92.9,143.8,85.8,143.8"/>
	<path class="st0" d="M102.9,174.8L93,155c-0.5-1-1.5-1.6-2.6-1.6h-1.9c-1,0-1.9,0.5-2.4,1.4c-0.5,0.8-0.6,1.9-0.1,2.8l9.8,19.8
		c0.5,1,1.5,1.6,2.6,1.6h1.9c1,0,1.9-0.5,2.4-1.4C103.3,176.7,103.3,175.7,102.9,174.8"/>
</g>
</svg>
