<svg width="172" height="352" viewBox="0 0 172 352" fill="none" xmlns="http://www.w3.org/2000/svg">
<mask id="mask0" mask-type="alpha" maskUnits="userSpaceOnUse" x="0" y="0" width="172" height="352">
<rect width="172" height="352" fill="#C4C4C4"/>
</mask>
<g mask="url(#mask0)">
<path d="M139.981 298.345L139.981 235.655L139.981 211.391C159.192 204.97 172 188.274 172 169.01C172 149.746 159.192 131.766 139.981 126.629L139.981 53.9391C139.981 24.401 116.927 -2.40732e-06 87.4692 -3.69496e-06L-148.192 -1.3996e-05C-155.877 -1.4332e-05 -161 5.13704 -161 12.8426C-161 20.5482 -155.877 25.6853 -148.192 25.6853L-141.788 25.6853L87.4692 25.6853C102.838 25.6853 115.646 38.5279 115.646 53.9391L115.646 126.629C97.7154 131.766 83.6269 148.462 83.6269 169.01C83.6269 189.558 96.4346 206.254 115.646 211.391L115.646 266.239L115.646 290.64L115.646 298.345C115.646 313.756 102.838 326.599 87.4692 326.599L-141.788 326.599L-148.192 326.599C-155.877 326.599 -161 331.736 -161 339.442C-161 347.147 -155.877 352.284 -148.192 352.284L87.4692 352.284C116.927 351 139.981 327.883 139.981 298.345ZM127.173 186.99C122.05 186.99 118.208 184.421 114.365 181.853C110.523 178 107.962 174.147 107.962 169.01C107.962 163.873 110.523 158.736 114.365 156.168C118.208 153.599 122.05 151.03 127.173 151.03C132.296 151.03 136.138 153.599 139.981 156.168C143.823 158.736 146.385 162.589 146.385 169.01C146.385 174.147 143.823 179.284 139.981 181.853C137.419 185.706 132.296 186.99 127.173 186.99Z" fill="#FFD1CA"/>
</g>
</svg>
